<?xml version="1.0" encoding="utf-8"?>
<!-- Generator: Adobe Illustrator 17.0.0, SVG Export Plug-In . SVG Version: 6.00 Build 0)  -->
<!DOCTYPE svg PUBLIC "-//W3C//DTD SVG 1.1//EN" "http://www.w3.org/Graphics/SVG/1.1/DTD/svg11.dtd">
<svg version="1.1" id="_x31_" xmlns="http://www.w3.org/2000/svg" xmlns:xlink="http://www.w3.org/1999/xlink" x="0px" y="0px"
	 width="216px" height="216px" viewBox="0 0 216 216" enable-background="new 0 0 216 216" xml:space="preserve">
<g>
	<path fill-rule="evenodd" clip-rule="evenodd" fill="#FFFFFF" d="M132.233,66.528c0.626-0.36,1.821-0.929,1.248-1.296
		c-1.932,0.303-3.274,0.891-3.744,1.906C130.708,67.534,131.599,66.892,132.233,66.528z"/>
	<path fill-rule="evenodd" clip-rule="evenodd" fill="#FFFFFF" d="M129.267,62.177c2.041,0.08,2.877-1.014,3.59-1.83
		C130.82,60.247,129.501,61.142,129.267,62.177z"/>
	<path fill-rule="evenodd" clip-rule="evenodd" fill="#FFFFFF" d="M134.575,70.421c2.141-4.156,0.83-10.764-3.435-13.204
		c-0.213,0.005-0.342-0.036-0.472-0.077c1.309,1.32,2.627,2.636,2.97,4.427c-2.323,0.343-3.537,1.227-4.218,2.366
		c2.484-0.11,2.795-1.281,4.372-1.832c-0.107,0.435,0.265,0.634,0.153,1.069c-2.338,0.121-4.21,1.22-3.739,2.211
		c2.304-0.018,2.275-1.575,3.896-1.679c0.338,3.167-0.449,6.19-1.089,8.626C134.28,72.024,134.232,71.084,134.575,70.421z"/>
	<path fill-rule="evenodd" clip-rule="evenodd" fill="#FFFFFF" d="M96.649,100.186c-3.555,0.3-2.967,4.801,0.311,5.265
		c-0.386-0.917-1.811-2.13-1.407-3.509C95.741,101.3,96.707,100.817,96.649,100.186z"/>
	<path fill-rule="evenodd" clip-rule="evenodd" fill="#FFFFFF" d="M140.036,135.752c0.328-0.806,0.516-1.682,0.625-2.596
		c-1.156,0.324-1.204,1.195-1.878,1.756c0.034-2.567-0.307-5.117-0.307-7.554c0-1.766,0.938-3.23,0.938-4.962
		c-0.011-0.048-0.026-0.09-0.157-0.077c-4.101,2.91-2.045,8.913-2.187,13.356C138.059,135.699,139.283,135.61,140.036,135.752z"/>
	<path fill-rule="evenodd" clip-rule="evenodd" fill="#FFFFFF" d="M129.89,127.511c1.084-1.583,1.758-3.201,2.967-4.734
		c1.159-1.465,2.858-2.784,4.057-4.197c2.315-2.719,3.245-7.473,2.5-11.447c-0.089-0.46,0.128-1.221-0.938-1.451
		c-0.106,0-0.207,0-0.314,0c0,0.075,0,0.153,0,0.227c-0.066,3.442-2.926,6.172-4.523,9.083
		C131.596,118.711,128.944,122.954,129.89,127.511z M137.697,112.093c0.475,0.338-0.197,0.764,0,1.221
		c-0.691-0.007-0.983,0.182-1.25,0.379C136.326,113.204,137.222,112.549,137.697,112.093z M137.382,114.077
		c0.345,0.985-1.53,1.54-2.344,2.214C134.887,115.399,136.627,114.776,137.382,114.077z M136.447,116.291
		c0.282,0.899-1.457,1.475-2.654,1.906C133.926,117.196,135.712,116.998,136.447,116.291z M133.639,118.503
		c0.761-0.084,1.255-0.302,1.716-0.533c0.013,0.643-1.08,1.404-2.03,1.831C132.915,119.42,133.633,118.937,133.639,118.503z
		 M133.325,120.564c-0.078,0.318-0.547,0.446-0.626,0.763C132.475,121.162,132.629,120.533,133.325,120.564z"/>
	<path fill-rule="evenodd" clip-rule="evenodd" fill="#FFFFFF" d="M147.061,123.54c2.303-2.201,1.976-6.133,1.714-9.158
		c-0.621-7.207-8.088-11.768-16.229-14.807c4.719,2.628,9.262,5.223,11.708,9.311c1.103,1.848,1.795,4.128,1.87,6.563
		c0.059,1.869-0.13,3.809,0.313,5.497c0.133,0.508,0.746,1.062,0.782,1.526C147.244,122.837,146.385,123.251,147.061,123.54z"/>
	<path fill-rule="evenodd" clip-rule="evenodd" fill="#FFFFFF" d="M133.946,67.29c-1.955-0.327-3.537,0.734-4.056,1.604
		C132.067,69.062,132.883,67.919,133.946,67.29z"/>
	<path fill-rule="evenodd" clip-rule="evenodd" fill="#FFFFFF" d="M129.578,103.468c0.785-0.707,0.728-1.531,0.63-2.29
		c-0.712-5.162-2.798-11.007-2.814-16.105c-0.006-1.94,1.69-3.685,2.965-5.265c0.815-1.007,1.322-2.028,2.034-2.977
		c0.132-0.181,1.146-0.668,0.154-0.842c-0.053,0-0.106,0-0.154,0c-2.755,2.033-4.861,4.558-6.248,7.023
		c-0.616,1.103-1.121,1.685-1.872,2.519c-2.959,3.302-5.307,6.81-4.68,11.755c0.435,3.442,1.092,6.996,1.092,10.608
		c0,3.54-0.88,6.931-1.251,10.379c1.039-0.98,0.97-2.047,1.872-3.129c0.268-0.321,0.808-0.544,1.094-0.84
		c3.473-3.577,3.6-8.893,3.121-13.814c-0.422-4.321-2.141-9.265,0.312-13.507C126.488,92.765,128.355,97.961,129.578,103.468z
		 M122.4,105.605c-0.362-0.866,0.841-0.962,1.091-1.527C124.181,104.71,123.482,105.407,122.4,105.605z M122.557,103.698
		c-0.336-0.141-0.33-0.452-0.315-0.764c0.672-0.105,0.983-0.383,1.248-0.686C124.19,102.919,123.047,103.351,122.557,103.698z
		 M122.243,102.017c-0.357-0.206-0.055-0.735-0.154-1.068c0.681-0.124,1.079-0.387,1.248-0.762
		C124.162,101.061,122.822,101.434,122.243,102.017z M122.089,100.186c-0.399-0.162-0.308-0.563-0.314-0.916
		c0.852-0.016,0.986-0.383,1.251-0.688C123.976,99.224,122.338,99.657,122.089,100.186z M122.089,90.493
		c0.69,0.172,0.419,0.813,0.469,1.297c-0.367-0.023-0.589-0.12-1.091-0.077C121.647,91.293,121.833,90.877,122.089,90.493z
		 M121.152,92.707c0.385,0.01,0.644-0.041,0.78-0.154c0.361-0.024,0.173,0.221,0.468,0.23c-0.263,0.406-1.121,0.52-1.248,0.992
		C120.77,93.534,121.079,92.98,121.152,92.707z M120.995,94.537c0.516-0.104,1.226-0.113,1.248-0.458
		c0.509,0.558-0.923,0.821-1.091,1.298C120.792,95.248,121.094,94.797,120.995,94.537z M120.995,96.14
		c0.995,0.056,1.063-0.344,1.405-0.61c0.327,0.569-1.149,0.914-1.094,1.603C120.792,97.004,121.059,96.49,120.995,96.14z
		 M121.152,97.208c0.407,0.464,1.634,0.141,1.56-0.304c0.994,0.724-0.435,1.357-1.245,1.679
		C121.512,98.051,121.202,97.694,121.152,97.208z M121.467,114.609c0.773-1.757,1.019-3.77,1.091-5.875
		c0.482-0.018,0.604-0.212,0.933-0.305C123.08,110.312,123.072,113.057,121.467,114.609z M123.805,107.438
		c-0.388,0.138-0.878,0.229-1.093,0.457c-0.358-0.508-0.085-1.433-0.312-1.604c0.223-0.196,1.017-0.114,1.091-0.383
		C124.193,106.126,123.615,106.968,123.805,107.438z"/>
	<path fill-rule="evenodd" clip-rule="evenodd" fill="#FFFFFF" d="M186.614,149.961 M194.193,132.776
		c3.234-6.658,1.778-14.94-0.935-20.989c-0.969-2.164-2.892-4.277-2.808-6.336c0.003-0.049-0.013-0.102,0-0.153
		c0.692-2.866,0.887-5.319,0.311-7.707c-0.579-2.411-3.349-4.085-4.058-6.337c-0.261-0.831,0.361-1.895-0.936-2.593
		c-0.595,0.066-0.902,0.272-0.937,0.609c-0.16,0.281-1.168,0.142-1.09,0.536c-0.173,2.077-0.207,4.224-0.783,6.104
		c-1.601-2.461-0.498-5.517-2.026-8.09c-0.17-0.278-0.633-0.56-0.785-0.837c-0.75-1.421-0.31-3.332-0.31-5.114
		c0-5.383,0.674-10.314,1.718-14.959c0.287-1.289,0.972-2.574,1.092-3.892c0.552-6.14-2.249-10.131-7.803-13.511
		c-2.026-0.055-2.186-1.417-4.369-1.143c4.954,2.944,10.195,6.157,10.141,11.295c-1.457-2.747-2.672-5.613-5.304-7.785
		c0.899,3.044,3.771,5.898,4.058,9.236c0.311,3.582-0.558,7.278-1.248,10.378c-0.372,1.67-0.157,3.75-0.779,5.191
		c-2.166,5.005-5.868,9.843-7.027,15.034c-1.094-5.06-0.84-9.335,0.625-13.735c0.681-2.05,2.029-3.961,2.963-5.878
		c0.492-1.001,0.654-2.031,1.408-2.979c1.345-1.69,1.922-3.262,1.561-5.57c-0.264-1.665-1.614-2.707-2.495-4.045
		c-0.317-0.472-0.033-1.062-0.939-1.374c-1.171,0.369-0.123,1.113,0,1.679c0.819,3.777-2.059,7.256-4.373,10.076
		c-2.427,2.959-4.384,6.215-4.37,10.074c0.016,3.846,1.534,7.18-0.624,9.922c-0.442,0.566-1.231,1.088-1.716,1.603
		c-1.983,2.114-5.474,3.581-7.803,5.267c-0.053-1.602,1.248-3.25,1.244-4.963c-0.003-1.071-0.546-2.036-0.776-3.051
		c-0.518-2.311,0.546-4.536-1.559-6.259c-0.247-0.331-0.818-0.046-0.939-0.382c-1.756-1.529-1.922-3.125-3.122-4.883
		c-1.277-1.873-1.702-3.559-1.092-6.031c0.268-1.089,0.447-2.269,0.778-3.204c0.748-2.098,3.864-3.044,4.995-4.808
		c0.144-0.219,0.06-0.398,0.158-0.688c0.17-0.518,1.224-1.272-0.468-1.604c-0.935,0.352-0.79,0.923-1.25,1.376
		c-2.551,2.526-7.459,4.175-9.362,7.022c0.014-3.799-0.491-7.175,1.716-9.846c0.468-0.57,1.213-1.107,1.714-1.681
		c2.42-2.752,3.742-5.259,3.28-9.158c-0.111-0.941,0.049-2.198-1.096-2.746c-0.859,2.373-1.504,4.118-2.651,5.954
		c-1.544,2.472-5.409,3.264-7.027,5.571c-1.001-1.34-1.834-2.517-4.06-3.434c-2.184-0.904-4.628-1.542-6.396-2.672
		c-2.679-1.714-6.023-3.703-6.553-6.107c-0.294-1.335-0.128-3.535,0.469-4.73c0.191-0.387,0.906-0.814,1.248-1.374
		c0.292-0.479,0.376-1.165,0.466-1.68c0.103-0.57,0.473-1.281-1.092-1.374c-0.394,0.418-0.548,0.952-0.468,1.604
		c-3.247,2.055-7.752,3.817-8.269,7.174c-0.245,1.557,0.222,3.171,0.623,4.655c0.683,2.557,3.411,4.55,4.369,6.792
		c0.765,1.792-0.877,3.012-1.871,4.197c-1.241,1.483-2.377,3.229-2.655,4.961c-0.148,0.934,0.104,1.952-0.154,3.053
		c-0.284,1.199-2.473,2.692-3.749,3.741c-1.294,1.064-2.679,2.183-3.591,3.356c-1.552,2.006-2.241,4.122-2.808,6.26
		c-0.2,0.755-0.136,1.583-0.468,2.365c-0.136,0.326-1.019,2.022-2.497,1.984c-1.111-0.027-1.776-1.169-2.184-1.906
		c-1.418-2.544-2.624-4.864-4.37-6.795c-2.577-2.841-5.122-5.508-8.117-7.937c-0.951-2.434-5.808-3.337-9.054-4.733
		c-0.663-0.285-1.039-0.748-1.716-1.068c-0.551-0.258-1.406-0.378-1.872-0.61c-0.594-0.295-0.742-1.077-2.033-0.917
		c-1.251,0.994,1.735,1.659,1.25,2.289c1.101,0.108,1.554,0.251,2.03,0.536c2.613,1.563,2.977,5.312,3.744,8.012
		c0.412,1.44,0.862,2.924,1.718,4.045c0.902,1.18,2.762,2.046,3.901,3.054c1.761,1.557,0.708,5.015,0.781,6.945
		c-2.768-2.183-2.199-5.994-4.991-8.166c0.092,2.537,0.524,4.895,1.872,6.869c1.375,2.017,3.81,3.69,4.678,5.723
		c-0.315,0.431,0.093,0.582,0.158,1.068c0.133,0.974-0.874,2.269,0.312,2.9c1.027-0.515,2.426-1.252,3.122-1.678
		c-0.055,1.579-2.813,2.236-3.122,3.433c1.946,0.134,2.477-1.074,3.276-1.755c0.34-0.263,0.367-0.182,0.937-0.075
		c-0.342-0.466,0.033-0.915,0.626-1.145c0.25,0.285,0.29,0.672,0.933,0.763c0.457-2.911-0.186-5.98,1.251-8.47
		c0.055,0.71,0.339,1.31,1.09,1.679c0.629-0.356,0.882-0.892,0.785-1.604c0.883,0.263,1.265-0.926,1.715-1.373
		c0.779,1.092,2.384,1.784,3.743,2.594c0.595-0.282-0.436-0.715-0.154-0.837c1.027,0.116,1.613-0.381,2.033-0.305
		c0.218,1.735-0.926,2.804-1.411,4.197c3.839-1.865,2.985-5.885,3.594-8.472c1.04-4.432,3.819-8.35,7.649-11.296
		c-0.265,4.273-4.582,6.969-5.463,10.685c2.129-1.885,3.263-4.257,5.302-6.182c0.172,0.668-0.81,1.496-0.311,1.831
		c0.881-0.478,0.558-1.158,0.783-1.756c0.439-1.181,1.223-2.373,1.716-3.586c0.524-1.288,0.788-2.58,1.405-3.816
		c1.221-2.45,2.695-4.78,4.372-6.869c1.56,3.176,1.447,6.37,0.779,9.998c-0.355,1.913-0.779,4.525-2.498,5.801
		c-2.453,1.819-7.499,2.662-9.049,4.883c-0.807,1.15-0.378,2.413-0.628,3.587c-0.301,1.431-1.486,2.729-2.184,4.044
		c-0.348,0.401-0.745-0.093-1.092,0.305c-0.805,1.779-3.499,2.734-5.932,3.818c-0.97,0.432-1.944,0.792-2.963,1.143
		c-1.114,0.386-2.505,0.613-3.434,0.993c-1.635,0.668-1.674,1.993-4.213,2.136c1.101-0.835,2.415-1.566,2.963-2.672
		c-2.371,0.522-2.9,1.94-4.527,2.825c-0.074,0.26,1.163,0.043,0.627,0.305c-0.317,2.123-7.191,1.617-9.991,0.917
		c0.185-0.83,0.028-1.82,0.311-2.596c0.088,0.138,0.083,0.318,0.311,0.383c0.277-0.147,0.055-0.535,0.782-0.459
		c0.775-1.841,0.429-3.713,0.626-5.573c0.127-1.21,0.594-2.417,0.312-3.662c-0.174-0.756-1.111-1.45-1.561-2.289
		c-0.91-1.683-0.835-3.499-0.627-5.343c-1.055,0.588-2.393,0.58-3.276,0.916c-2.831,1.082-4.902,3.862-5.619,6.259
		c-0.339,1.128-0.307,2.59-0.468,4.274c-0.103,1.134-0.333,3.533-1.559,3.739c-1.747,0.296-3.161-1.084-3.749-1.754
		c-1.708-1.95-2.437-3.702-3.586-5.573c-0.569-0.922-1.756-1.857-2.029-2.668c-0.673-2.002,0.057-4.145,0.779-5.879
		c0.701-1.682,2.291-3.304,2.651-5.035c0.156-0.734-0.231-1.42-0.154-2.138c0.059-0.563,0.484-1.168,0.622-1.755
		c0.484-2.037,0.746-3.695,2.03-5.268c-1.267,0.374-1.99,1.012-2.965,1.529c-4.379,0.939-8.535,3.241-9.053,5.954
		c-0.299,1.57,0.494,3.496-0.937,4.5c-2.084,0.79-4.138,1.996-5.618,2.824c1.337-3.367,4.377-7.246,2.341-11.372
		c-2.657,1.921-3.142,4.282-5.775,6.032c-0.97,0.645-2.132,1.11-2.966,1.753c-3.021,2.347-4.991,5.342-5.462,8.932
		c-0.501-0.111-0.867-0.288-1.717-0.227c-1.746-1.319-4.078-2.456-6.713-3.588c-2.558-1.107-5.696-2.039-7.647-3.207
		c-1.778-1.064-1.824-2.375-2.03-4.045c-1.211,0.117-1.378,0.907-1.714,1.373c-0.768,1.067-0.979,2.491-0.78,3.818
		c0.651,4.368,8.871,6.69,11.705,10.075c0.509,0.608,0.8,1.459,1.092,2.364c0.286,0.897,0.904,1.872,0.623,2.595
		c-0.101,0.257-0.668,0.625-0.937,0.917c-2.281,2.465-2.817,5.166-3.744,8.242c-0.487,1.618-1.182,3.218-1.875,4.811
		c-0.684,1.583-1.848,3.195-2.184,4.729c-0.674,3.072,1.545,5.419,0.782,8.395c-1.701-0.959-2.455-2.206-3.903-3.356
		c-1.365-1.084-3.237-2.057-4.212-3.207c-0.89-1.042-0.983-2.378-1.093-3.74c-0.111-1.354,0.81-2.883-0.626-3.815
		c-0.455,2.859-2.363,5.374-1.562,8.471c0.32,1.241,1.719,2.591,2.655,3.894c2.948,4.1,2.459,8.922,4.523,13.431l8.117,8.777
		c0.122,0.05,0.246,0.1,0.364,0.152l7.509,3.148c0.035-0.054,0.069-0.108,0.088-0.17c0.461,0.028,0.772,0.133,0.932,0.305
		c-0.076,0.066-0.168,0.124-0.248,0.189l6.652,2.788c0.214-0.311,0.785-0.6,1.404-0.304c-0.003,0.155-0.214,0.28-0.493,0.342
		l16.58,0.687c-0.229-0.03-0.461-0.058-0.79-0.038c0.231-0.335,1.601-0.268,1.716,0.077l5.544,1.319l46.06-0.174
		c-0.606,0-1.211,0-1.815,0c3.407-2.203,7.653-3.991,11.392-6.031c1.098,0.754-1.003,1.417-2.023,1.987
		c-2.372,1.321-5.246,2.779-7.182,4.043l1.563-0.006c-0.079-0.279,0.964-0.772,1.714-1.138c0.757-0.368,1.619-0.766,2.34-1.145
		c1.522-0.802,2.821-1.768,4.369-2.213c0.34,0.825-0.752,1.076-1.714,1.6c-1.742,0.955-3.721,1.993-5.286,2.89l1.532-0.006
		c-0.198-0.261,0.667-0.458,1.099-0.669c1.402-0.685,2.997-1.648,4.369-2.367c0.696,1.418-2.466,2.067-3.767,3.03l1.452-0.005
		c0.179-0.388,2.035-0.883,2.471-1.42c0.512,0.337,0.47,0.947,0.722,1.408l1.613-0.006c-0.098-1.039,0.795-3.056,0.006-4.379
		c-0.102-0.279,0.339-0.292,0.314-0.533c-0.08-0.192-0.416-0.257-0.468-0.46c-0.179-1.603-1.281-2.863-2.503-4.12
		c-1.195-1.237-3.08-2.193-4.21-3.282c-2.007-1.93-1.516-4.518-4.995-5.953c-1.509,0.018-2.11,0.029-3.59,0
		c-1.024,0.955-0.208,2.142-0.778,3.129c-0.511,0.883-2.776,1.634-2.03,2.671c0.557,0.147,0.989-0.023,1.091-0.304
		c0.236,0.578-1.796,1.097-1.091,1.908c0.86-0.075,1.442-0.539,1.872-0.84c1.411-0.991,2.782-2.132,4.369-3.129
		c1.044,0.739,1.627,1.701,2.656,2.442c-2.653,1.503-5.464,3.333-7.964,4.658c1.507-1.416,3.659-2.708,5.776-3.971
		c0.576-0.343,2.065-0.783,1.097-1.374c-1.629,0.146-2.403,0.912-3.281,1.452c-0.918,0.561-1.855,1.152-2.653,1.754
		c-0.218-0.325,0.504-0.757,0.935-1.069c1.274-0.908,3.736-1.986,3.747-3.281c-0.945,0.082-1.756,0.609-2.343,0.992
		c-1.853,1.205-3.708,2.734-5.305,4.121c-0.162,0.338,0.944,0.451,0.779,0.534c-0.627,1.015-0.51,2.397-1.56,3.206
		c-0.256,0.381,0.542,0.243,0.465,0.535c-0.308,1.25,0.49,2.671,0.157,3.434c0.095,0.157,0.24,0.289,0.785,0.229
		c-0.383,0.45-1.187,0.693-1.251,1.298c3.204-0.986,5.314-2.552,7.799-3.892c2.488-1.341,5.39-2.521,7.497-4.046
		c0.295,0.401,1.192,0.902,1.091,1.374c-0.112,0.507-2.357,1.381-3.121,1.756c-3.291,1.611-7,3.534-9.521,5.114
		c-2.075-0.029-4.414,0.074-6.244-0.075c-1.267-1.271-0.986-2.745-1.406-4.198c-0.406-1.409-1.638-2.539-2.341-3.74
		c-0.906-1.55-1.069-3.622-1.249-5.573c-0.335-3.623-0.13-7.342-0.935-10.836c0.966,0.217,0.922,1.011,1.091,1.527
		c0.601,1.789,0.621,3.926,1.405,5.723c1.034,2.366,2.736,4.55,5.306,5.954c-0.545-1.767-1.589-3.295-2.181-5.037
		c1.664-0.382,2.292-1.271,3.118-2.061c0.416,0.434,0.06,1.243,0.627,1.602c0.795-1.329,0.605-3.124,0.468-4.656
		c-0.294-3.262-2.821-5.92-4.681-8.7c-0.867-1.294-1.802-2.738-2.808-4.121c-1.727-2.366-3.192-3.953-2.657-7.403
		c0.078-0.5,0.35-1.002,0.627-1.605c-0.793-0.422-0.34-1.229-0.78-1.678c-1.24,0.327-0.896,1.358-1.406,2.062
		c-0.177,0.242-0.743,0.432-0.939,0.687c-1.152,1.499-0.896,3.958-1.088,6.03c-0.091,0.954-0.171,2.172,0,2.977
		c0.385,1.843,2.409,3.775,2.184,6.182c-0.199,2.137-0.359,4.445-0.157,6.638c-2.324-3.594-5.811-7.335-6.242-11.981
		c-0.314-3.365-0.511-6.509-2.5-9.31c0.67,2.924,1.098,5.552,1.564,8.32c0.116,0.689-0.062,1.379,0,2.061
		c0.323,3.63,3.124,6.754,5.151,9.844c0.699,1.067,1.633,2.208,1.873,3.207c0.392,1.646-0.13,3.216,0,4.655
		c0.18,2.006,1.051,4.102,2.34,6.029c0.622,0.935,1.368,1.805,1.716,2.747c0.583,1.586,0.377,3.323,1.562,4.658
		c-1.022,0.039-1.776-0.049-2.656-0.078c0.066-0.337-0.041-0.591-0.311-0.764c-0.365-0.152-0.99-0.175-1.718-0.152
		c-0.008-3.95-5.745-6.258-8.582-9.082c-2.863-2.849-4.869-5.632-7.958-8.319c-0.056-0.274-0.24-0.369,0-0.61
		c-0.435-0.232-0.732,0.249-1.094-0.077c-0.085-0.469,0.18-1.104-0.158-1.451c-1.309,0.142-1.568,1.339-0.779,1.833
		c-0.512-0.155-1.676-0.091-2.032,0.075c-0.621,4.938,2.216,9.497,4.062,13.739c-2.862-2.343-3.56-5.741-6.556-8.015
		c1.922,3.227,2.627,7.567,6.556,10.077c0.967,0.618,2.503,1.011,3.117,1.678c-0.629,1.216-4.772,0.183-5.929-0.231
		c-0.245-0.158-0.108-0.506-0.314-0.685c-0.322-0.173-0.912-0.216-1.404-0.306c-3.404-3.076-5.047-7.542-7.179-11.22
		c-0.277-0.477-0.237-1.196-1.405-1.373c-0.718,0.4,0.16,0.906,0.311,1.296c0.943,2.435,1.259,5.253,2.81,7.48
		c-0.484,0.068-0.77,0.233-1.248,0.304c-0.388-0.272-0.268-0.543-0.158-0.915c-1.844-0.521-0.682-2.515-2.183-3.205
		c-0.784-2.857-2.082-6.246-1.562-9.236c0.016-0.262-0.539-0.244-0.624-0.457c0.067-0.579,0.646-0.906,0.624-1.525
		c1.141,1.477,3.408,2.404,4.683,3.815c0.477-0.741-0.526-1.523-1.091-2.211c-1.627-1.983-3.706-4.239-4.059-7.022
		c-0.531-4.181,0.797-8.58-2.186-11.755c5.673,3.256,3.239,10.476,6.556,14.884c0.397-0.918-0.368-1.957-0.468-3.054
		c-0.388-4.145-0.295-8.391-3.121-11.373c-1.382-1.451-3.646-2.538-5.15-4.045c-2.331-2.33-3.186-4.927-4.68-7.554
		c-0.456-0.796-0.628-1.717-1.562-2.519c0.887,3.87,1.288,7.216,3.9,10.073c0.816,0.892,2.16,1.629,2.967,2.52
		c3.361,3.702,1.088,9.062,2.184,14.043c-1.843,2.075-3.401,4.29-4.684,6.639c-1.318-0.981,0.771-2.623,1.875-4.119
		c1.796-2.438,3.162-5.059,0-7.252c-0.114-0.384,0.213-0.558,0.31-0.838c-0.263-0.14-0.613,0.022-0.624,0.228
		c-0.481-0.303-0.696-0.685-0.468-1.146c-0.262-0.195-0.587-0.058-0.78-0.381c-2.098-2.469-1.682-5.246-2.806-7.937
		c-0.879-2.104-2.9-4.04-4.53-6.029c-1.683-2.057-2.546-4.132-4.214-6.184c-0.111,4.35,6.149,7.782,6.87,12.364
		c0.249,1.599-0.524,3.141-0.16,4.807c0.498,2.257,3.771,6.318,0,7.785c-0.015-2.951,0.08-5.493-0.31-8.015
		c-0.269-1.72-1.518-3.511-2.341-5.187c-2.494-5.101-5.977-9.703-7.179-15.418c-0.8,0.916,0.193,2.236-0.471,3.203
		c-1.132-2.547-2.144-5.154-2.181-8.242c-0.669,0.502-0.574,1.131-0.623,1.678c-0.336,3.608,1.948,7.485,2.964,10.993
		c0.585,2.021,0.579,4.012,1.406,5.951c0.43,1.014,1.566,1.893,0.153,2.671c0.222,0.296,1.099,0.151,1.407,0.23
		c0.515,0.444-0.339,0.825-0.161,1.068c-0.07,0.266,0.852,0.045,0.941,0.23c0.902,1.593,1.975,3.104,2.964,4.656
		c-2.863-0.396-2.309,1.507-2.181,2.059c0.862,0.017,1.198-0.227,1.402-0.533c0.303,0.482,1.636,0.11,1.873,0.305
		c-0.021,0.188-0.023,0.367,0.153,0.458c-0.014,0.307-1.366-0.141-1.246,0.383c-0.138,0.415,1.103,0.24,1.246,0.305
		c0.417,1.345-0.143,2.709,0.315,4.045c-0.431,0.17-1.036,0.254-1.406,0.456c-3.526-1.607-4.894-4.271-5.147-7.478
		c-0.676-0.048-0.568,0.283-0.628,0.533c-0.784-4.4,0.22-9.673-2.026-13.357c-0.478,0.2-0.039,0.823,0,1.146
		c0.615,5.306-0.751,10.496-0.16,15.57c0.185,1.574,1.061,3.109,1.407,4.656c0.333,1.476,0.231,2.938,0.625,4.349
		c0.444,1.593,1.945,3.066,1.869,4.656c-2.785-1.815-5.066-3.88-6.552-6.334c-0.622-0.309-0.902-0.78-1.56-1.068
		c1.123,1.488-0.763,2.809-1.25,4.198c-1.936-1.436,1.413-2.898,0.779-4.58c-1.595,0.34-1.649,1.431-2.184,2.289
		c-0.604-0.24-0.579-0.783-0.936-1.143c1.143-0.359,1.721-0.991,1.717-1.91c-1.36,0.124-1.431,0.878-1.875,1.451
		c-1.506-2.945-5.056-6.19-6.24-9.387c-0.319-0.855-0.248-1.898-0.314-2.826c-0.054-0.781,0.471-1.732-0.78-2.288
		c-1.773,1.086-0.231,3.434-1.249,4.96c-2.123-4.868,3.12-8.453,3.12-13.127c0-2.074,0.355-3.965,1.407-5.953
		c-0.011,1.231-0.324,3.222-0.155,4.885c0.08,0.776,0.558,1.488,0.622,2.136c0.213,2.139-1.041,3.951-0.622,5.954
		c0.21,1.011,1.285,2.048,2.027,3.052c0.761,1.026,1.331,2.064,1.875,3.054c1.191,2.193,1.48,4.275,2.809,6.563
		c0.339-0.162,0.491-0.418,0.468-0.761c0.305,0.03,0.124,0.294,0.623,0.227c0.94-1.076,0.216-2.214,0.159-3.434
		c-0.219-4.69,2.142-9.61,1.406-14.349c-0.567-3.649-4.002-6.56-5.62-9.54c0.017-0.22-0.086-0.498,0.155-0.612
		c-1.089-0.482-0.69-1.648-0.779-2.67c-0.319-3.556-2.709-5.453-5.934-7.403c-2.958-1.787-6.576-3.631-6.558-7.022
		c5.398,2.782,11.609,5.164,17.17,7.862c0.159-0.208,0.316-0.577,0.781-0.23c1.009,0.11-0.895,0.574-0.622,1.068
		c1.415,0.119,1.95-1.221,2.966-1.296c0.156,0.87-1.983,1.193-2.343,2.058c1.043-0.024,1.742-0.878,2.499-1.296
		c1.529,1.696,0.596,4.593,2.025,6.334c2.874-3.362-2.652-7.256-0.465-10.305c0.086-0.27-0.252-0.333-0.47-0.457
		c0.529-1.014,1.429-1.845,1.407-3.129c1.997-2.257,5.961-3.545,7.645-5.954c-1.034,3.302-4.418,7.158-3.586,11.449
		c0.312,1.614,1.733,3.087,3.276,4.275c0.531-1.133-0.602-2.094-0.471-3.13c0.124-0.911,1.303-1.973,2.187-2.671
		c0.989-0.778,2.204-1.466,3.435-1.831c-0.764,1.946-1.363,4.937,0.158,6.714c1.103-2.7,1.126-6.403,2.963-9.005
		c1.123-1.591,1.95-2.329,3.903-3.358c-0.698,2.077-1.882,4.576-2.81,6.793c0.622,0.212,0.82-0.33,0.937-0.611
		c-0.345,2.401,0.967,4.964-0.157,7.174c-0.581,0.292-0.912-0.814-1.873-0.84c-0.188,1.062,1.969,1.292,1.559,2.214
		c0.297,0.278,0.903-0.066,1.096,0.23c3.687,2.598,5.213,6.252,6.399,10.073c1.658-2.313-0.73-5.489-1.562-7.021
		c0.964,1.283,2.086,2.49,4.994,2.824c0.739-0.036,0.234,0.067,0.313,0.305c3.442-0.503,3.618-2.604,4.056-4.58
		c1.732-0.96,2.415-2.43,3.592-3.662c2.719,1.564-2.396,2.898-1.402,4.503c1.768-0.301,1.787-1.464,2.65-2.215
		c-0.034,1.257-2.11,2.173-2.65,3.435c-0.42-0.303,0.008-1.022-0.628-1.22c-0.583,3.519-2.366,8.594,0.628,11.449
		c0.368,0.352,1.128,0.659,1.402,0.991c1.113,1.365,0.792,4.53,0.624,6.412c-0.332,3.703-0.941,7.238-0.624,10.762
		c0.55,6.08,5.503,9.985,9.988,14.348c2.163,2.102,4.229,3.713,4.525,6.564c2.163-3.54-1.127-7.929-1.874-11.297
		c-0.546-2.482-2.739-5.008-4.055-7.25c-1.455-2.473-1.775-4.865-2.032-7.71c-0.198-2.246-0.702-4.383-1.717-6.41
		c-1.116,0.114-0.983,0.843-1.872,1.07c-0.668-1.557,0.829-2.494,1.092-3.511c-0.901-0.314-1.051,0.737-1.56,0.611
		c-0.802-1.301,1.641-1.687,1.248-2.747c-1.137-0.046-1.128,0.465-1.56,0.763c-0.377-0.298-0.246-0.844-0.623-1.146
		c3.443-0.541,0.752-4.195-1.253-2.214c-0.909-0.517,0.712-0.738,1.253-1.067c0.59-0.359,0.646-0.855,1.403-1.069
		c0.226-0.449,0.45-0.9,0.624-1.373c3.943,0.789,10.668,1.7,12.331-0.689c2.616-0.068,3.76-0.856,4.216-1.982
		c4.013-1.193,7.866-2.87,10.611-4.425c0,1.017,0,2.034,0,3.051c-0.288-0.139-0.202-0.459-0.467-0.611
		c-0.006,2.66-1.373,4.544-2.495,6.639c-1.026,1.907-1.67,3.82-1.408,6.489c1.069-3.165,2.433-6.191,4.216-9.006
		c1.545,4.91-3.061,7.5-4.37,11.218c1.044-0.184,1.088-0.878,1.403-1.296c0.987-1.308,2.298-2.749,3.278-4.124
		c-0.496,2.072-3.74,3.87-3.59,6.259c0.957-0.193,1.119-0.865,1.405-1.298c0.893-1.349,1.769-2.984,3.278-4.12
		c-0.02-0.494,0.265-0.837,0.311-1.298c0.294,2.74-2.298,4.626-3.897,6.869c-0.375,0.522-1.027,1.13-0.625,1.678
		c1.099-0.726,1.642-1.69,2.34-2.594c0.688-0.898,1.31-1.815,2.027-2.672c0.162,2.955-2.588,5.146-4.057,7.559
		c-0.284-0.959-0.563-1.914-1.096-2.75c-2.48,6.701,4.19,12.078,8.746,16.409c0.721,0.689,1.197,1.443,1.556,2.215
		c0.347,0.733,0.074,1.616,1.093,2.365c1.24-0.822,1.629-3.193,1.874-4.58c0.865-4.848-2.296-8.012-4.06-11.982
		c-1.526-3.442-2.279-6.65-2.654-10.761c-0.101-1.127-0.151-2.217-0.776-3.36c-0.542,0.195,0.324,1.075-0.471,1.145
		c-0.201-1.726,1.097-2.72,1.093-4.349c-0.382-0.206-0.63,0.703-0.936,0.535c0-1.415,0-2.833,0-4.35c0-1.385-0.589-3.048,0-4.351
		c0.372-0.825,2.455-1.758,3.12-2.749c0.682-1.013,1.504-2.245,1.716-3.434c0.182-1.005-0.157-2.243,0.468-3.13
		c1.525-2.154,7.16-2.925,8.744-4.729c-3.241,4.26-9.648,8.002-8.744,14.118c0.03,0.179,0.142,0.338,0.157,0.535
		c0.151,1.629,0.666,2.813,0.627,4.35c-0.044,1.736,0.887,3.635,0.78,5.341c-0.096,1.532-0.808,2.76-0.937,4.122
		c-0.292,3.146-0.234,5.873,0.937,8.318c0.734,1.533,1.924,3.201,2.965,4.964c0.504,0.854,1.173,1.5,1.404,2.594
		c-0.11,0.209,0.739-0.055,0.625,0.153c0.795,1.039,0.438,2.081,0.311,3.434c-0.382,4.116,2.468,8.91,2.345,12.518
		c-0.049,1.372-0.872,2.777-1.405,3.588c1.435,0.088,1.76-0.863,2.184-1.377c1.813-2.196,0.618-6.041,1.248-8.699
		c-1.85-6.508,2.677-11.613,3.904-16.869c-1.54,1.623-2.187,3.521-3.281,5.343c-1.242,2.079-2.396,4.371-2.65,6.489
		c-2.092-6.498,3.682-11.25,3.9-17.098c-1.355,1.867-1.956,3.879-2.967,5.801c-1.013,1.942-2.129,3.873-2.65,5.954
		c-3.038-3.235-3.707-7.818-3.278-12.592c0.24-2.679,0.031-5.343-0.314-7.784c-0.945,4.217-0.906,8.919-0.937,13.582
		c-2.172-4.334-0.773-10.281,0-14.803c-0.68,0.126-0.633,0.605-0.781,0.991c0.975-7.21,3.012-13.998,8.429-19.157
		c1.816-1.73,4.215-3.42,4.37-5.497c-1.621,0.989-2.124,2.21-3.435,3.282c-3.636,2.972-7.263,6.164-8.583,10.457
		c-0.999-3.174,1.94-5.094,3.9-7.403c3.948-4.646,9.255-8.793,8.742-15.111c-1.004,1.667-1.455,3.441-2.34,5.112
		c-0.876,1.659-2.042,3.207-3.435,4.578c1.843-2.536,1.259-5.429,1.559-8.701c0.158-1.67,0.61-3.387,0.782-5.035
		c0.105-1.005-0.233-1.962-0.154-2.903c0.025-0.342,0.332-0.718,0.308-1.067c-0.097-1.53-2.326-2.917-3.275-4.198
		c-0.212-0.288-0.114-0.586-0.311-0.838c-0.333-0.419-1.022-0.727-1.405-1.146c-0.514-0.562-0.751-1.292-1.251-1.984
		c-0.925-1.29-1.639-2.483-1.405-4.428c3.528,3.16,9.718,5.021,12.641,8.472c0.804,0.108,0.754-0.595,0.472-0.763
		c3.416,0.603,6.017,3.403,6.398,5.799c0.3,1.891-0.178,4.005-0.31,6.183c-0.111,1.801,0.193,4.035-0.158,5.724
		c-0.8,3.818-4.11,6.464-4.837,9.998c1.193-0.128,2.008-1.103,2.804-1.678c0.097,5.087,1.034,10.976,0,16.18
		c-1.43-1.028-2.193-2.384-3.118-3.664c-1.222,0.904-0.409,2.085,0.158,2.976c0.554,0.872,1.244,1.844,2.339,2.52
		c0.977,0.598,2.403,0.839,2.812,1.679c10.186,3.896,15.367,10.244,18.105,17.783c1.615-6.346-3.038-10.927-8.115-14.501
		c0.676-0.576-0.201-1.397-0.469-1.985c0.446-0.722,0.656-1.561,0.626-2.519c0.793-0.052,1.019,0.397,1.4,0.611
		c3.326,1.871,7.58,3.647,10.304,5.954c3.048,2.581,5.589,5.931,5.929,9.616c0.307,3.286-0.407,6.838,0.935,9.541
		c0.866,1.73,1.96,4.318,0.939,6.486c0.037-6.63-5.266-10.653-5.616-17.095c-1.612,5.204,3.411,10.142,3.896,15.416
		c0.143,1.489,0.057,3.048-0.154,4.581c-0.631,4.61-4.788,8.078-7.803,11.753c-0.789,0.962-1.271,1.806-1.872,2.976
		c-0.147,0.282,0.364,0.882-0.937,0.841c-0.237-0.409,0.261-0.85,0.465-1.223c1.238-2.21,1.073-4.841,2.029-7.554
		c0.341-0.954,1.057-1.876,1.094-2.825c0.12-3.023-0.916-6.196-1.246-9.769c-0.307-3.322,0.494-6.395-1.094-9.081
		c-0.311,3.174-0.82,6.539-0.469,9.997c0.24,2.339,1.715,4.743,0.936,6.869c-0.247,0.676-1.284,1.358-1.715,2.062
		c-0.495,0.805-0.725,1.553-1.406,2.212c-0.268-1.246,0.327-2.336,0.157-3.511c-0.253-1.72-1.748-3.304-2.027-4.886
		c-0.362-2.024,0.573-3.525,1.091-5.418c-1.783,1.177-2.888,2.685-2.656,4.961c0.107,1.002,1.001,1.99,0.937,2.825
		c-0.06,0.781-1.091,1.568-1.248,2.366c-0.458,2.318,0.845,4.834-0.622,6.564c-0.404,0.474-1.353,0.686-2.032,1.068
		c-2.056,1.164-3.328,2.542-4.524,3.741c0.335-2.889-1.871-5.318-3.59-7.71c-1.441-1.999-2.046-3.873-3.279-5.952
		c-0.478,0.423-0.422,1.574-1.251,2.059c-1.034,5.421-1.569,11.087-8.739,13.512c1.833-1.679,2.339-4.001,3.124-6.412
		c1.09-3.348,2.073-6.686,1.717-10.534c-0.053-0.576,0.474-1.535-0.627-1.755c-1.325,4.87-2.772,10.346-4.525,15.187
		c-0.414,1.146-0.986,2.205-1.87,3.208c-0.114,0.126-0.255,0.394-0.529,0.559l5.493-0.021c2.973-0.998,6.38-2.139,9.24-3.363
		c0.759-0.327,2.607-1.008,1.407-1.602c-2.27,0.899-4.501,1.821-6.716,2.747c1.222-1.465,4.939-2.367,7.178-3.587
		c0.379,0.705,1.113,1.238,0.939,2.213c-2.479,0.719-5.156,1.861-8.117,2.824c-0.866,0.282-1.514,0.584-2.374,0.763l2.425-0.009
		c2.872-0.898,5.902-1.722,8.065-2.968c0.453,1.123-0.568,2.126-1.299,2.942l31.893-0.691 M91.181,91.56
		c-0.198,1.076-1.503,1.606-2.178,2.444c-0.333-1.433,2.203-2.126,2.805-3.36c0.297,0.354,0.307,1.216-0.313,1.374
		C91.145,91.987,91.489,91.613,91.181,91.56z M88.841,92.096c0.445-1.362,2.244-2.057,3.123-3.205
		C92.281,90.319,89.889,91.083,88.841,92.096z M91.342,93.927c-0.077-0.519,0.023-0.953,0.467-1.221
		C92.223,93.053,92.346,93.866,91.342,93.927z M96.493,85.915c-1.128-1.06-1.285-2.364-2.345-3.36
		c-0.336-0.315-0.764-0.272-1.246-0.533c-1.323-0.719-2.235-1.97-4.685-2.061c-0.168,0.646,1.409,0.887,2.189,1.374
		c1.017,0.636,2.591,1.972,2.806,2.823c0.349,1.345-0.773,2.588-0.937,4.046c-1.623,0.63-2.487,1.633-3.586,2.518
		c-1.273-1.397,2.711-2.375,2.492-3.739c-1.932,0.402-2.38,1.529-3.277,2.442c-0.497-0.266-0.625-0.711-0.934-1.07
		c0.845-1.222,0.825-3.691,0.622-5.953c-0.177-1.995-0.77-3.915-3.121-4.425c-2.77-3.15-2.438-7.814-4.683-11.22
		c1.101,0.202,2.634,0.849,4.061,1.143c3.901,3.154,6.827,6.746,9.832,10.534C95.432,80.639,96.755,82.73,96.493,85.915z
		 M18.609,125.296c-0.507,2.273-0.684,4.801-0.311,7.48c-1.024-1.177-1.137-2.51-1.564-3.818c-1.267-3.903-2.512-8.065-4.835-11.524
		c2.52,1.132,3.186,2.824,5.46,4.197c0.796,0.483,1.75,0.951,1.873,1.376C19.416,123.633,18.775,124.542,18.609,125.296z
		 M106.168,136.132c-0.085,0.118-0.165,0.004-0.156-0.075c0.586-1.085,2.001-1.767,2.809-2.749
		C110.083,134.454,106.878,135.21,106.168,136.132z M108.354,141.094c1.786-1.047,3.453-2.006,4.681-2.899
		c0.649,0.013,0.548,0.395,0.935,0.534c-3.604,1.978-7.321,3.9-10.145,6.258C103.453,143.368,106.567,142.141,108.354,141.094z
		 M103.67,145.827c3.734-2.069,7.313-4.209,10.772-6.412c0.561,0.03,0.474,0.377,0.777,0.536c-3.833,2.22-8.063,4.248-11.393,6.715
		C103.47,146.536,103.77,146.082,103.67,145.827z M103.515,148.42c-0.399-0.891,1.664-1.694,2.965-2.442
		c3.02-1.737,6.773-3.759,9.521-5.266c0.349,0.083,0.275,0.374,0.622,0.457C112.381,143.65,107.535,145.833,103.515,148.42z
		 M102.264,130.946c-0.263,0.653-2.566,1.742-3.275,2.288c-0.405-0.489-0.395-1.18-0.625-1.756c1.403-0.763,2.279-1.785,3.278-2.746
		C101.768,129.516,102.528,130.294,102.264,130.946z M98.364,130.792c-0.542-0.22-0.215-0.862-0.469-1.223
		c1.39-0.771,2.234-1.807,3.122-2.822C102.294,128.368,99.33,129.543,98.364,130.792z M97.894,128.501
		c-0.739-1.335,1.625-2.25,2.028-3.509C101.399,126.198,98.433,127.324,97.894,128.501z M98.834,123.693
		c1.436,0.805-1.139,1.883-1.407,2.824C96.521,125.5,98.633,124.675,98.834,123.693z M96.649,124.686
		c-0.723-0.787,1.019-1.548,1.245-2.366C98.887,123.082,96.938,123.85,96.649,124.686z M97.273,121.327
		c-0.471,0.584-1.011,1.136-1.561,1.68c-0.852-0.809,0.627-1.566,0.937-2.29C97.015,120.842,96.98,121.165,97.273,121.327z
		 M95.864,119.953c-0.33,0.422-1.032,0.665-1.245,1.144c-0.858-0.514,0.491-1.083,0.623-1.603
		C95.704,119.525,95.55,119.855,95.864,119.953z M92.59,114.992c0.271,0.148,0.33,0.399,0.465,0.612
		C92.139,115.775,92.383,115.133,92.59,114.992z M92.121,115.145c-0.161,0.274-0.305-0.69-0.312-0.994
		c0.414,0.029,0.137,0.39,0.466,0.457C92.229,114.789,92.026,114.897,92.121,115.145z M92.742,116.213
		c0.514,0.029,0.688,0.223,1.092,0.306c-0.352,0.412-0.912,0.724-1.245,1.145C91.862,117.208,92.713,116.74,92.742,116.213z
		 M94.304,117.512c0.532,0.145,0.552,0.544,0.784,0.838c-0.557,0.339-1.198,0.639-1.565,1.07
		C92.879,118.834,94.164,118.186,94.304,117.512z M80.571,149.718c-0.444-0.013-0.65-0.138-1.094-0.152
		c0.453-0.143,0.622-0.54,1.405-0.306C80.831,149.441,80.696,149.577,80.571,149.718z M81.039,147.504
		c0.013-1.315,2.145-2.255,3.279-3.282C84.297,145.537,82.346,146.567,81.039,147.504z M82.445,147.504
		c0.262,0.208-0.256,0.688-0.469,0.916C81.013,148.173,82.189,147.818,82.445,147.504z M82.913,149.797c-0.414,0-0.832,0-1.249,0
		c0.842-0.606,1.655-1.227,2.498-1.833C84.191,148.192,83.677,149.451,82.913,149.797z M84.162,146.971
		c-0.208-0.484,0.736-1.063,1.246-1.45C85.739,146.065,84.724,146.611,84.162,146.971z M85.565,143.765
		c0.681,0.149,0.733,0.67,0.467,1.068c-0.298-0.031-0.283-0.217-0.778-0.154C85.248,144.323,85.525,144.104,85.565,143.765z
		 M84.471,142.85c-0.613,0.336-1.103,0.733-1.559,1.146c-0.07-0.419,0.447-1.206,0.78-1.68
		C84.062,142.442,84.139,142.708,84.471,142.85z M73.235,132.698c-0.356-0.079-0.06-0.479-0.156-0.686c0.156,0,0.311,0,0.467,0
		C73.865,132.205,73.26,132.438,73.235,132.698z M74.798,132.624c1.066,0.575-0.854,1.055-1.094,1.678
		C73.525,134.076,74.584,133.165,74.798,132.624z M75.734,133.766c0.161,0.642-1.301,1.148-1.559,1.834
		C73.546,135.016,75.395,134.384,75.734,133.766z M76.513,134.836c1.179,0.753-1.274,1.512-1.716,2.213
		C74.141,136.304,76.127,135.573,76.513,134.836z M75.266,138.729c-1-1.196,1.678-1.724,2.183-2.671
		c0.524-0.002,0.319,0.354,0.624,0.457C77.159,137.265,76.227,138.004,75.266,138.729z M78.541,137.201
		c0.324,0.021,0.145,0.286,0.467,0.304c-1.134,0.868-2.121,1.815-3.122,2.749C75.106,139.024,78.046,138.316,78.541,137.201z
		 M76.513,142.012c-1.049-1.418,2.434-2.29,2.964-3.666c0.647-0.011,0.311,0.458,0.783,0.535
		C79.077,139.957,77.562,140.87,76.513,142.012z M77.293,143.765c-1.088-0.893,0.237-1.485,1.406-2.366
		c0.865-0.651,1.714-1.13,2.183-1.678C82.568,140.751,77.906,142.682,77.293,143.765z M82.13,140.941
		c0.352,0.159,0.449,0.444,0.783,0.612c-1.849,1.154-3.292,2.514-4.996,3.74C77.53,143.82,81.323,142.259,82.13,140.941z
		 M78.541,146.132c1.083-0.744,2.134-1.502,3.123-2.29c-0.017,1.112-1.587,2.124-2.499,3.054
		C78.785,146.724,78.729,146.397,78.541,146.132z M66.525,145.979c-1.06-0.016-0.324-0.383-0.311-0.685
		C66.513,145.42,66.775,145.82,66.525,145.979z M65.743,144.3c0.258,0.21,0.651,0.657,0.315,0.917c-0.259,0-0.521,0-0.783,0
		C64.832,144.824,65.538,144.599,65.743,144.3z M68.864,149.413c-1.513,0.332-2.616-0.195-3.744-0.305
		C65.657,148.222,67.844,149.168,68.864,149.413z M39.679,98.278c0.166-0.078,0.275,0.254,0.312,0.381
		c0.484,1.553,1.262,3.688,1.716,4.734C40.656,101.871,39.828,100.241,39.679,98.278z M42.333,108.047
		c-0.894-1.066-1.099-2.468-1.564-3.74C41.662,105.494,42.713,106.391,42.333,108.047z M43.425,108.201
		c1.183,0.407,0.055,1.037-0.158,1.601C42.821,109.328,43.584,108.786,43.425,108.201z M44.828,111.1
		c-0.328-0.255-0.453,0.231-0.935,0.152c0.046-0.663,0.583-1.089,0.78-1.678c1.32,1.72,1.664,3.917,2.184,6.029
		C46.162,114.183,43.862,112.601,44.828,111.1z M41.237,147.048c0.708-0.978,2.058-1.642,2.967-2.52
		c1.479,0.887-1.359,1.865-1.871,2.751C41.941,147.212,41.72,147.067,41.237,147.048z M44.049,138.652
		c1.028,0.595-0.134,2.418-1.248,2.747C42.618,140.496,43.923,139.661,44.049,138.652z M41.391,140.787
		c-1.084-0.415,0.117-1.239,0.472-1.906c0.407-0.765,0.613-1.589,0.938-2.291C44.242,137.885,41.899,139.484,41.391,140.787z
		 M45.296,140.331c1.063,0.769,0.879,1.561,0,2.365c-0.525-0.201-0.96-0.446-1.248-0.763
		C44.759,141.542,44.905,140.879,45.296,140.331z M43.739,147.582c0.36-0.738,1.507-1.094,2.024-1.755
		c0.253-0.022,0.272,0.072,0.472,0.077c-0.236,0.529-1.226,1.327-2.186,1.754C44.043,147.584,43.858,147.6,43.739,147.582z
		 M45.763,147.963c0.746-0.705,1.313-1.496,2.967-1.754c0.13-0.218-0.22-0.2-0.157-0.383c0.36-0.022,0.174,0.221,0.469,0.23
		C48.062,146.746,47.456,147.619,45.763,147.963z M46.857,142.316c0.644,0.355,1.2,1.14-0.156,1.297
		C45.802,143.259,46.666,142.773,46.857,142.316z M48.262,143.765c0.296,0.159,0.506,0.365,0.627,0.611
		c-0.37,0.024-0.295,0.264-0.784,0.23C47.569,144.338,48.046,144.067,48.262,143.765z M48.262,147.888
		c0.82-0.644,1.944-1.135,2.656-1.832c0.351,0.056,0.465,0.228,0.623,0.38C50.668,147.029,50.45,147.938,48.262,147.888z
		 M49.513,145.063c0.487-0.035,0.441,0.192,0.624,0.305c-0.163,0.204-0.259,0.433-0.785,0.459
		C48.915,145.528,49.158,145.315,49.513,145.063z M51.386,147.735c0.136-0.316,0.641-0.45,0.781-0.764
		C53.319,147.093,52.406,147.794,51.386,147.735z M53.88,145.521c-3.135-2.232-5.113-5.028-7.336-7.709
		c0.43-1.865-3.675-2.101-2.963-4.351c5.128,3.09,8.203,7.182,12.33,10.761C55.308,144.694,54.768,145.192,53.88,145.521z
		 M55.129,146.361c-0.238-0.537,1.161-0.899,1.559-1.374C57.307,145.425,55.761,146.034,55.129,146.361z M56.065,146.819
		c0.334-0.5,1.248-0.713,1.72-1.145c0.213,0.123,0.44,0.241,0.626,0.383C57.782,146.492,57.291,147.312,56.065,146.819z
		 M58.877,147.582c-0.426,0.056-0.315-0.152-0.626-0.152c0.16-0.305,0.667-0.438,0.937-0.689c0.234,0.04,0.394,0.113,0.625,0.154
		C59.683,147.212,59.267,147.389,58.877,147.582z M60.124,148.041c-0.133-0.296,0.381-0.272,0.467-0.459
		C61.072,147.693,60.841,148.096,60.124,148.041z M64.026,146.819c0.596,0.21-0.653,0.783-1.251,0.916
		C63.056,147.361,63.762,147.199,64.026,146.819z M62.153,146.971c-0.539-0.32,0.672-0.886,1.405-1.067
		C63.362,146.39,62.434,146.525,62.153,146.971z M62.464,144.68c0.435-0.029,0.148,0.285,0.469,0.307
		c-0.456,0.438-1.232,0.72-1.716,1.145C60.004,145.614,62.227,145.206,62.464,144.68z M59.812,145.138
		c-0.155-0.099-0.255-0.23-0.466-0.305c0.562-0.665,1.793-1.005,2.495-1.602C62.835,144.11,60.661,144.663,59.812,145.138z
		 M60.905,140.102c-1.475-0.548-1.661-1.783-0.938-2.824C60.638,138.044,59.878,139.51,60.905,140.102z M59.345,134.227
		c-1.318,0.476-1.124,1.689-1.719,2.517c-0.363-1.229,1.434-2.701,1.876-4.045c0.627,2.084,0.181,3.814-0.783,5.421
		C57.35,136.932,59.897,135.506,59.345,134.227z M56.688,129.036c0.815-1.18,1.625-2.257,2.032-3.359
		c0.43,1.185-1.104,2.904-1.875,4.197c-0.693,1.173-2.012,2.38-1.246,3.666c0.925-0.201,0.584-0.709,0.781-1.069
		c0.915-1.675,2.41-3.416,3.122-5.189c0.405,0.234,0.372,0.682,0.778,0.915c-2.195,1.775-3.004,4.23-4.216,6.489
		c-0.436-0.849-1.724-1.623-1.716-2.444C54.359,131.475,56.087,129.914,56.688,129.036z M56.223,124.381
		c-0.878,1.935-2.418,3.548-3.59,5.341c-1.335-0.634,0.334-1.811,1.248-2.899c0.857-1.013,1.511-1.747,2.03-2.52
		C56.09,124.292,56.188,124.32,56.223,124.381z M53.569,119.877c1.044,0.346,0.633,0.939,0.155,1.449
		C53.364,120.995,53.669,120.336,53.569,119.877z M52.319,123.082c0.408,0.058-0.823,0.939-0.311,1.299
		c1.785-0.639,1.604-2.422,3.121-3.207c-0.053,0.57-0.686,1.176-1.249,1.833c-0.467,0.546-0.825,1.38-1.403,1.754
		c-1.421,0.915-4.884,0.547-6.091-0.381C48.906,124.496,51.167,123.883,52.319,123.082z M40.458,121.404
		c2.409,2.207,3.456,5.481,10.616,5.113c-0.178,0.489-0.932,1.052-0.625,1.525c1.681-0.641,1.991-1.829,2.806-2.824
		c0.819-0.997,1.843-1.99,2.499-2.977c0.332,1.089-1.023,2.111-1.875,3.13c-0.837,1.006-1.756,2.04-2.494,3.054
		c-0.142,0.346-0.481-0.39-1.091-0.305c3.153,5.046,6.589,10.678,11.545,14.349c-1.14,0.534-2.389,1.424-3.43,1.753
		c-0.351-0.638,1.759-1.298,2.181-2.059c-1.374,0.016-2.149,0.985-3.432,1.296c-2.679-2.102-3.89-4.189-5.931-6.486
		c-2.514-2.827-7.802-4.371-8.74-7.785c-0.243-0.271,0.528-0.047,0.468-0.23C42.052,126.475,41.108,124.01,40.458,121.404z
		 M42.643,135.906c-1.567,1.091-1.778,2.843-2.807,4.197c-1.331-0.36-0.231-1.543,0.155-2.29c0.476-0.923,1.117-1.774,1.246-2.747
		C41.851,135.274,42.232,135.598,42.643,135.906z M40.769,134.532c-1.023,1.534-1.626,3.275-2.654,4.807
		c-0.602-0.01-0.611-0.31-1.09-0.382c1.39-1.457,2.105-3.244,2.811-5.037C40.313,134.041,40.326,134.392,40.769,134.532z
		 M37.34,140.331c-0.989-0.132-2.077-0.868-2.967-1.296C35.162,139.258,36.284,139.981,37.34,140.331z M39.836,133.766
		c-0.068,0.114-0.138-0.006-0.314,0c-1.773,1.245-1.812,3.34-3.275,4.733c-0.696-0.094-0.955-0.401-1.25-0.688
		c1.924-0.991,2.27-2.756,2.809-4.425c-1.464,1.114-1.605,2.876-2.809,4.119c-0.336-0.064-0.13-0.39-0.47-0.456
		c1.228-1.639,2.109-3.446,2.814-5.342C38.178,132.388,38.897,133.132,39.836,133.766z M36.09,130.029
		c1.414,1.655-1.572,4.336-2.186,6.181C33.468,134.187,35.538,132.078,36.09,130.029z M34.996,128.731
		c1.275,1.102-1.189,2.689-1.403,4.045C32.439,131.392,34.838,130.19,34.996,128.731z M31.872,134.302
		c-1.824-1.522-2.804-3.461-3.432-5.571C29.774,130.496,31.242,132.194,31.872,134.302z M22.198,118.274
		c0.654,1.54,0.995,3.684,2.027,5.191c0.662,0.962,1.84,1.884,2.185,2.746c0.335,0.825,0.24,1.668,0.469,2.441
		c0.233,0.797,0.455,1.539,0.781,2.293c0.618,1.423,1.684,2.593,2.34,3.967c-0.88-0.663-1.511-1.447-2.808-1.908
		c2.657,2.726,4.001,5.753,8.428,7.632c2.331,0.991,5.74,1.579,7.023,3.205c0.299-0.1-0.151-0.481-0.31-0.609
		c0.436-0.057,0.991,0.478,1.248,0.764c-1.311,0.833-2.343,1.805-3.434,2.745c-1.051-0.289-2.134-0.355-3.277-0.762
		c-1.054-0.376-2.012-1.276-2.808-1.373c-0.27-0.033-0.942,0.555-1.407,0.152c-0.444-0.255,0.429-0.355,0.468-0.611
		c-2.177-0.36-2.654-1.551-4.683-1.983c-0.119-0.323-0.867-0.486-0.469-0.841c-0.436-0.191-0.705-0.467-1.248-0.609
		c-2.134-2.086-3.931-4.337-5.462-6.717c0.262-0.661-0.654-1.539-0.782-2.289C19.732,127.313,22.352,123.012,22.198,118.274z
		 M28.595,97.667c1.686,2.832,3.794,5.918,4.213,9.54c0.392,3.377-0.465,6.856-0.623,10.456c-1.602-3.544-6.759-6.557-4.215-11.296
		c0.256-0.429-0.689-0.272-0.466-0.685c0.578-2.568-0.076-5.737,0.935-8.09C28.571,97.575,28.589,97.621,28.595,97.667z
		 M59.967,75.916c-0.192-0.732,0.538-1.67,1.089-2.289C61.297,74.378,60.184,75.131,59.967,75.916z M52.319,79.12
		c-1.772,1.303-4.563,2.393-5.775,3.969c-0.36-0.307-0.052-0.94-0.158-1.373c2.443-1.3,4.267-2.904,7.184-3.969
		C53.835,78.262,52.874,78.715,52.319,79.12z M54.193,76.374c0.924-0.716,0.724-1.721,0.937-2.825
		c0.511-2.649,3.293-4.12,6.245-5.724c0.132-0.015,0.145,0.029,0.154,0.075c-0.522,1.82-0.784,3.492-2.183,4.963
		C58.059,74.213,57.163,75.822,54.193,76.374z M59.656,90.57c-0.399-0.008-0.225-0.299-0.624-0.305
		c0.064-0.199,0.465-0.231,0.469-0.457C59.855,89.913,59.558,90.338,59.656,90.57z M60.436,91.333
		c0.048-0.18,0.541-0.142,0.469-0.383c0.493,0.294,0.612,0.771,0.623,1.299C61.038,92.005,60.928,91.576,60.436,91.333z
		 M75.108,87.363c-0.175,0.575-1.232,1.25-1.718,1.908c-0.534,0.727-0.864,1.363-1.246,2.062c-0.297-2.968,0.841-5.896,2.964-7.937
		C74.511,84.612,75.467,86.174,75.108,87.363z M87.592,135.065c0.464,0.692,0.601,1.539,0.939,2.289
		C87.988,136.684,86.524,135.844,87.592,135.065z M86.502,134.912c-0.838-0.406,0.453-0.829,0.469-1.299
		C87.448,134.054,86.57,134.488,86.502,134.912z M85.565,133.844c-0.533-0.197-0.642-0.601-0.937-0.916
		c0.621-0.432,1.059-0.958,1.404-1.525C87.04,132.164,86.083,133.163,85.565,133.844z M83.85,132.318
		c0.375-0.831,1.145-1.475,1.559-2.289C86.06,130.805,84.688,131.774,83.85,132.318z M84.471,128.347
		c1.229,0.992-1.007,2.047-1.248,3.055C82.1,130.482,84.444,129.45,84.471,128.347z M82.13,130.257
		c-0.332-0.846,1.489-1.902,1.72-2.976C83.926,128.284,82.635,129.281,82.13,130.257z M81.039,129.036
		c-0.385-0.946,1.701-1.949,2.031-3.054C83.115,127.05,81.721,128.07,81.039,129.036z M80.099,127.586
		c0.096-0.998,1.608-1.963,2.03-3.052C82.429,125.449,80.685,126.601,80.099,127.586z M79.477,126.212
		c-1.331-1.595,1.174-2.815,1.717-4.198C82.558,123.633,80.173,124.896,79.477,126.212z M79.007,123.618
		c-0.795-1.716,1.194-2.725,1.723-4.045C81.848,121.28,79.638,122.3,79.007,123.618z M80.571,116.823
		c0.74,1.509-1.127,2.4-1.564,3.587C78.105,118.825,79.915,117.903,80.571,116.823z M78.852,117.586
		c-0.93-1.548,1.223-2.251,1.719-3.358C81.33,115.695,79.49,116.55,78.852,117.586z M80.099,111.483
		c1.131,1.281-0.73,2.236-1.248,3.203C78.085,113.344,79.317,112.321,80.099,111.483z M77.293,103.851
		c1.1,0.333-0.17,0.811-0.313,1.22c-0.492-0.197-0.325-0.706-0.78-0.915C76.47,104.007,77.287,104.124,77.293,103.851z
		 M74.175,94.537c0.016-0.355,0.349,0.156,0.934,0c1.144-0.609,1.497-1.607,2.34-2.364c0.504,1.409-2.32,2.462-2.965,3.815
		C74.123,95.63,74.166,95.075,74.175,94.537z M74.329,96.371c0.179,0.063,0.416,0.1,0.78,0.075c1.261-0.757,2.008-1.765,2.808-2.746
		c1.262,1.322-2.677,2.97-3.433,4.197C74.123,97.538,74.431,96.856,74.329,96.371z M74.329,98.964
		c1.917-0.766,2.791-2.045,4.058-3.129c0.357,0.759-1.063,1.539-1.873,2.289c-0.705,0.653-1.333,1.248-2.03,1.756
		C74.126,99.726,74.428,99.246,74.329,98.964z M75.108,102.627c-0.249-0.13-0.473-0.276-0.468-0.532c0.416,0,0.832,0,1.244,0
		C75.743,102.326,75.129,102.333,75.108,102.627z M74.483,101.407c-0.122-0.067-0.17-0.173-0.154-0.305
		c1.271-0.318,1.254-1.267,2.808-1.451C76.204,100.215,75.821,101.041,74.483,101.407z M78.541,100.644
		c-1.208,0.122-1.223,0.824-2.34,0.993c0.546-0.678,1.472-1.163,2.029-1.831C78.966,99.894,78.384,100.222,78.541,100.644z
		 M76.98,99.345c0.313-0.584,1.083-0.944,1.406-1.525c0.38,0.268,0.253,0.42,0.312,0.915C77.996,98.876,78.061,99.39,76.98,99.345z
		 M77.137,86.906c-0.561-1.982,0.208-3.809,1.092-5.419c-0.973,3.824,3.374,6.134,1.716,10.074
		C79.643,90.149,77.572,88.452,77.137,86.906z M107.259,112.321c-0.128,1.794-2.11,3.344-2.811,5.113
		C103.884,115.878,106.51,113.895,107.259,112.321z M107.572,114.229c0.391,1.64-1.83,3.26-2.343,4.963
		C104.088,117.456,106.971,115.857,107.572,114.229z M113.345,128.958c-0.56-0.207-0.468-0.542-0.154-0.838
		C113.548,128.251,113.25,128.702,113.345,128.958z M112.254,127.815c-1.793-0.661-0.198-1.84,0.158-2.748
		C113.476,125.779,112.967,127.134,112.254,127.815z M110.693,126.289c-1.726-0.87,0.734-2.386,0.937-3.513
		C112.929,123.96,111.005,125.174,110.693,126.289z M108.822,124.457c0.922-1.025,1.34-2.297,2.03-3.436
		c1.076,1.303-1.223,2.703-1.564,4.046c-3.114-1.554-0.302-3.956,0.782-5.8C111.393,120.943,107.664,122.636,108.822,124.457z
		 M107.104,122.547c-1.405-1.651,1.503-3.501,2.027-5.189C110.323,119.178,107.371,120.705,107.104,122.547z M108.354,115.908
		c0.564,1.711-1.896,3.238-2.341,4.961C105.611,119.232,107.704,117.536,108.354,115.908z M122.243,129.189
		C122.797,130.104,121.885,129.762,122.243,129.189L122.243,129.189z M122.089,127.662c0.138,0.046,0.276,0.09,0.311,0
		c0.432,0.117,0.014,0.458-0.157,0.533C121.787,128.196,121.875,127.765,122.089,127.662z M116.779,64.926
		c-0.118-2.581,1.97-4.737,3.593-6.716C121.47,60.287,117.525,62.819,116.779,64.926z M120.213,42.335
		c-0.053,1.889-0.043,4.052,1.562,5.341C118.7,46.884,118.201,43.921,120.213,42.335z M148.154,51.493
		c0.377,1.048-0.576,2.11-0.936,3.052c-0.211-0.051-0.291-0.164-0.315-0.305c-1.275,1.214-1.361,2.567-2.495,3.739
		c-1.096,1.134-2.552,2.13-3.592,3.204c0.054-1.008-0.753-1.802-0.779-2.594C139.939,55.363,147.953,54.78,148.154,51.493z
		 M146.903,102.934c-0.493,0.088-0.807-0.284-1.09-0.458c-2.629-1.575-6.413-3.044-9.21-4.578c2.6-4.512,1.408-9.924,0.779-14.883
		c-0.183-1.454-0.541-3.112-0.153-4.503c0.237-0.851,1.374-1.785,1.868-2.825c0.459-0.959,0.89-2.083,1.096-3.126
		c0.365-1.853-0.374-3.877-0.157-5.801c0.134-1.174,0.428-2.105,0.625-3.434c0.114-0.772,0.859-1.305,1.405-1.987
		c-1.226,4.733,0.198,10.304,0.154,15.418c-0.441,0.013,0.134-0.47-0.308-0.459c-0.837,0.815-0.914,2.122-0.786,3.283
		c0.391,3.435,2.377,6.718,3.281,9.847c0.141,0.4-0.767,0.286-0.622,0.686c-0.079,0.368,1.007,0.169,0.934,0.533
		c0.354,2.195,0.633,4.425,0.939,6.643c-1.397-0.058-1.504-0.843-1.721-1.376c-1.674-4.083-0.939-9.917-3.745-13.431
		C141.511,89.442,141.004,97.959,146.903,102.934z M146.278,100.263c-0.619-0.867-1.064-1.82-1.558-2.748
		C146.505,97.811,145.891,99.281,146.278,100.263z M149.871,89.729c1.297-0.584,2.328-1.123,3.277-1.525
		c1.91,1.023-1.253,1.777-2.811,2.44c-1.457,0.622-2.575,1.155-3.434,1.374C146.19,91.014,148.611,90.298,149.871,89.729z
		 M152.212,99.806c-0.531,0.07-1.599-0.582-2.341-0.919c-0.876-0.394-1.761-0.82-2.495-1.143c0.027-1.329-0.041-2.494-0.157-3.586
		c-0.04-0.361-0.367-0.772-0.157-1.146c0.243-0.429,2.073-1.042,2.966-1.452c1.375-0.632,2.527-1.063,3.434-1.601
		c1.17,1.246-1.3,1.931-2.812,2.672c-1.18,0.577-2.41,1.044-3.117,1.526c2.762,0.004,4.644-1.496,6.241-2.061
		C152.982,94.536,151.891,96.824,152.212,99.806z M153.773,87.44c-2.735,0.75-4.972,2.145-7.336,2.824
		c-0.407-0.624,0.802-0.902,1.407-1.221c1.769-0.94,3.697-1.875,5.46-2.901c-1.391-0.099-2.779,0.617-3.902,1.146
		c-1.18,0.553-2.218,1.251-3.433,1.451c-0.524-1.104,2.023-2.096,3.276-2.748c1.353-0.703,2.833-1.264,3.59-1.909
		c-1.708-0.048-2.94,0.753-4.059,1.298c-1.194,0.584-2.159,1.333-3.431,1.604c-0.101-1.867-2.19-3.964-2.341-5.877
		c-0.071-0.889,0.537-1.865,0.628-2.824c0.198-2.159-0.425-4.492-0.158-6.565c0.227-1.782,2.852-3.381,3.904-4.655
		c-0.114,0.797-0.778,1.997-1.407,2.595c0.175,1.583-0.569,3.693-0.31,5.343c0.465,3.017,4.396,5.215,5.305,8.013
		c-3.209,0.007-3.574,1.407-5.62,1.986c2.438,0.288,3.617-1.329,6.242-1.452c0.123-0.492-0.235-0.752-0.154-1.219
		C152.89,83.698,153.924,85.278,153.773,87.44z M133.946,145.751c-0.205-0.232,1.003-0.424,1.251-0.688
		C135.327,145.258,134.333,145.553,133.946,145.751z M137.229,142.164c0.498,0.11,0.408,0.511,0.621,0.762
		c-0.237-0.189-1.335-0.232-1.558,0C136.079,142.717,136.995,142.409,137.229,142.164z M135.354,144.833
		c0.194-0.618,2.25-0.984,2.495-1.831c0.284,0.242,0.561,0.487,0.626,0.839C137.474,144.193,136.523,144.568,135.354,144.833z
		 M150.963,135.448c1.213,1.942,0.765,4.862-0.314,6.716C150.678,140.193,150.498,137.458,150.963,135.448z M145.033,147.657
		c-0.027,0.089,0.031,0.137,0.154,0.154c-0.003,0.331-0.735,0.302-0.933,0.534C144.144,148.237,144.533,147.722,145.033,147.657z
		 M151.901,149.718c-0.996-0.029-1.596,0.135-2.656,0.078c0.842-0.328,2.01-0.493,2.811-0.84
		C152.462,149.135,151.8,149.437,151.901,149.718z M146.124,149.95c2.079-0.817,4.406-1.509,6.556-2.292
		c0.183,0.013,0.133,0.139,0.154,0.231C150.547,148.549,148.548,149.354,146.124,149.95z M153.303,146.436
		c-3.241,1.214-7.155,2.099-9.673,3.665c-0.417,0-0.836,0-1.253,0c3.067-1.604,7.382-2.6,10.926-3.97
		C153.693,146.143,153.352,146.39,153.303,146.436z M153.773,145.217c-1.4-0.05-1.829,0.377-2.652,0.61
		c0.388-0.344,1.789-0.854,2.806-1.147C153.713,144.78,153.773,145.013,153.773,145.217z M194.039,135.981 M172.812,91.027
		c0.496-3.698,3-6.716,4.371-10.151c0.165,2.166,0.097,4.635,1.091,6.412c0.434,0.774,1.694,1.648,1.872,2.441
		c0.375,1.68,0.415,3.443,0.942,5.192c0.492,1.652,1.078,3.292,1.247,4.959c0.184,1.872-0.234,3.893-0.312,5.876
		c-0.086,2.095,0.153,4.218,0.153,6.26c0,4.189-2.423,7.363-3.744,10.839c0.545-2.595-1.306-5.16-1.716-7.48
		c-0.216-1.21-0.084-2.402-0.313-3.588c-0.626-3.253-2.912-6.42-3.434-9.54c-0.297-1.801,0.01-3.738,0.158-5.649
		C173.265,94.775,172.564,92.874,172.812,91.027z M172.658,112.856c0.207,0,0.415,0,0.626,0c-0.026,0.27-0.448,0.34-0.472,0.61
		C172.463,113.409,172.75,113.037,172.658,112.856z M175.312,116.139c0.1,1.065-1.699,1.866-2.5,2.746
		C172.777,117.85,174.613,117.069,175.312,116.139z M172.969,116.823c0.133-0.749,1.619-1.497,2.029-2.365
		C175.662,115.308,173.384,115.998,172.969,116.823z M172.969,115.527c-0.466-0.842,1.054-1.366,1.408-2.061
		C174.513,114.144,173.362,114.854,172.969,115.527z M172.658,111.941c-0.234-0.753,0.993-1.449,1.404-2.139
		C174.249,110.531,172.992,111.213,172.658,111.941z M172.503,110.338c-0.34-0.143-0.33-0.452-0.313-0.764
		c1.113-0.016,0.886-0.686,1.248-1.068C173.784,109.134,172.668,109.705,172.503,110.338z M172.029,108.658
		c-0.235-0.289-0.26-0.689-0.311-1.07c0.29-0.003,0.535,0.391,0.785,0.154C172.808,107.97,172.099,108.355,172.029,108.658z
		 M172.503,120.106c1.046-0.858,2.161-1.697,3.122-2.519c0.425,0.242-0.224,0.602,0,0.993c0.181,0.012,0.273-0.018,0.311-0.077
		c-1.482,1.312-4.039,3.165-6.083,4.199C170.484,121.854,171.463,120.96,172.503,120.106z M171.718,122.547
		c1.579-0.964,3.403-2.196,4.842-3.28c0.238,0.186,0.232,0.495,0.312,0.763c-2.461,0.986-3.768,2.534-6.086,3.587
		C170.209,123.193,171.242,122.843,171.718,122.547z M176.245,117.434c0.141-0.02,0.579,0.865,0,0.993
		C175.766,118.161,176.416,117.8,176.245,117.434z M176.873,121.784c-1.589,0.852-3.036,1.773-4.37,2.749
		c-0.474-0.153-0.934-0.31-1.093-0.612c2.193-0.835,3.578-2.067,5.306-3.128C177.074,120.973,176.773,121.478,176.873,121.784z
		 M176.561,122.777c0.084,0.529-0.751,1.261-1.248,1.757c-0.679,0-0.99,0.177-1.716,0.152
		C174.459,123.989,175.579,123.416,176.561,122.777z M177.028,124.992c-0.361,1.568-4.691,2.082-5.931,0.38
		C172.362,125.668,176.208,125.783,177.028,124.992z M172.19,105.376c0.639,0.246,0.417,0.737,0,0.991
		C171.76,106.128,172.412,105.768,172.19,105.376z M171.563,103.62c0.428,0.122,0.178,0.578,0.466,0.763
		C171.76,104.487,171.441,103.963,171.563,103.62z M156.739,102.17c0.608-0.571,1.886-0.939,2.966-1.373
		c2.123-0.856,4.36-1.758,6.552-2.672c1.084-0.45,2.264-0.842,3.123-1.372c-1.437-0.132-2.602,0.508-3.746,0.915
		c-2.343,0.836-4.688,1.755-7.027,2.671c-0.997,0.393-2.057,1.128-3.431,0.993c-0.245-0.404,0.823-0.57,1.247-0.764
		c1.464-0.665,3.01-1.47,4.528-2.214c2.05-1.001,4.273-1.934,6.088-2.977c-1.377-0.099-2.249,0.614-3.123,0.994
		c-2.748,1.19-5.751,2.61-8.428,3.663c0.368-0.863,0.615-1.784,1.251-2.519c0.472,0.194-0.511,0.616,0,0.839
		c1.849-0.825,3.692-1.654,5.463-2.519c1.744-0.851,3.81-1.546,5.302-2.519c-1.158-0.162-1.924,0.46-2.652,0.763
		c-2.331,0.976-4.922,2.048-7.022,3.208c0.361-1.188,2.119-2.07,3.437-3.054c0.799-0.598,1.186-1.179,1.866-1.909
		c1.674-1.783,3.571-2.945,3.906-5.188c0.382-2.552-0.776-4.85-0.312-8.015c0.792-5.396,7.38-9.839,8.118-15.112
		c0.064-0.459-0.047-0.963,0-1.448c1.271,4.259-1.822,8.272-3.903,11.677c-2.56,4.182-3.788,8.616-3.277,14.271
		c0.294,3.304,1.776,5.984,2.966,9.235c-4.745,1.071-8.938,3.465-13.27,4.732C157.22,102.342,157.007,102.24,156.739,102.17z
		 M158.457,103.084c3.912-1.746,8.154-3.338,12.019-5.112c0.128,0.544,0.168,0.879,0.311,1.528
		c-3.524,1.458-7.349,2.767-10.775,4.273C159.18,103.698,159.09,103.258,158.457,103.084z M160.64,104.383
		c3.159-1.455,6.41-2.868,9.836-4.196c0.606,0.219-0.228,0.991,0,1.526c-3.055,1.101-5.766,2.37-8.899,3.434
		C161.401,104.826,160.922,104.653,160.64,104.383z M162.513,105.835c2.304-1.265,5.297-2.192,7.646-3.435
		c0.361,0.231,0.053,0.787,0.157,1.143c-2.49,0.868-4.752,1.851-7.025,2.825C162.9,106.254,162.744,106.024,162.513,105.835z
		 M163.761,107.055c1.947-1.033,4.339-1.847,6.246-2.899c0.689,0.144,0.127,0.902,0.308,1.296c-2.077,0.691-3.834,1.535-5.774,2.291
		C164.048,107.625,164.017,107.283,163.761,107.055z M164.851,108.429c1.818-0.714,3.658-1.416,5.156-2.289
		c0.663,0.031,0.147,0.64,0.308,0.916c-1.895,0.499-3.14,1.314-4.993,1.832C165.097,108.768,165.112,108.531,164.851,108.429z
		 M166.572,110.869c0.895-0.528,2.254-0.829,2.962-1.447c-1.401-0.166-2.164,0.611-3.12,0.916c-0.378-0.172-0.384-0.528-0.622-0.764
		c1.642-0.546,2.91-1.272,4.367-1.908c0.606,4.137,1.959,10.469-2.029,13.28C168.034,117.38,168.688,113.449,166.572,110.869z
		 M166.882,143.46c0.078,0.288-0.462,1.071-0.939,1.373c-1.539,0.99-5.143,1.572-6.864,2.445
		C159.948,145.159,164.222,144.705,166.882,143.46z M162.356,149.26c0.224-0.134,0.143-0.174-0.311-0.152
		c0.384-0.168,0.798-0.323,1.405-0.383c-0.131,0.218,0.22,0.198,0.154,0.383C163.352,149.238,162.948,149.298,162.356,149.26z
		 M159.236,149.338c-0.694-0.058-0.937,0.099-1.562,0.075c0.361-1.731,4.139-1.794,5.931-2.824
		C162.848,147.543,160.435,148.345,159.236,149.338z M166.882,148.803c-0.786-0.053-1.086,0.131-1.873,0.075
		c1.176-0.367,1.6-1.101,2.655-1.527C167.897,147.774,167.103,148.35,166.882,148.803z M167.663,141.322
		c0.74-1.036,3.152-1.919,4.995-2.67C172.477,139.964,169.24,140.442,167.663,141.322z M170.475,141.63
		c-0.173-0.54,0.596-0.623,0.935-0.917C171.52,140.924,171.078,141.516,170.475,141.63z M169.695,142.47
		c0.248,0.279-0.605,0.669-0.786,0.99C168.779,143.241,169.443,142.757,169.695,142.47z M187.798,140.255
		c-0.413,0.554-0.482,0.781-1.093,1.375c-0.233,0.23-0.434,0.565-0.625,0.686c-0.205,0.133-0.922,0.291-1.248,0.459
		c-1.384,0.712-2.43,1.682-3.899,2.519c-1.772,1.004-3.919,2.634-6.399,1.985c-1.605,0.437-2.266,1.335-4.838,1.296
		c-0.074-0.411,0.514-1.015,1.092-1.526c1.638-1.454,3.284-2.998,4.212-4.961c1.215-2.577,1.325-5.417,2.344-8.243
		c1.91-5.315,7.51-9.087,9.675-14.043c1.742,8.536-2.983,14.569-8.115,19.997c4.47-2.442,6.901-6.111,8.74-10.229
		c1.852-4.146,0.325-9.081,0.311-13.888c-0.712,0.405-0.589,0.915-1.562,1.066c-0.84,5.121-6.366,9.071-9.83,13.126
		c-1.712,2.009-4.119,3.93-6.245,5.879c-1.066,0.978-2.023,2.008-3.123,2.977c-1.906,1.679-3.271,3.284-5.46,4.809
		c3.413-4.463,7.657-9.181,6.711-16.027c-0.263-0.381,0.758-0.14,0.936-0.306c-0.534-1.087-0.72-2.346-1.094-3.513
		c0.609-0.133,1.331,0.969,2.19,1.221c-0.348,1.001,0.991,1.791,2.183,2.292c2.966,0.289,4.812-0.185,6.086-1.147
		c1.771-1.342,2.306-3.769,2.965-5.953c0.592-1.97,2.539-3.795,2.811-5.954c0.663-5.288-0.117-10.987,1.248-15.34
		c-0.153-1.804-0.641-4-0.626-5.875c1.539,1.853,3.027,3.72,3.279,5.875c0.165,1.437-0.07,2.89,0,4.351
		c0.32,6.528,4.526,12.835,4.526,19.844c0,1.217,0,2.429,0,3.663c0,1.393-0.317,2.775-0.469,4.196
		c-0.335,3.201-2.003,5.961-3.742,8.627C188.435,139.783,188.076,139.883,187.798,140.255z"/>
	<path fill-rule="evenodd" clip-rule="evenodd" fill="#FFFFFF" d="M130.358,56.911c-0.043-0.848-2.43-2.463-2.965-0.84
		c1.766-0.049,1.477,0.534,1.248,1.145C129.445,57.436,129.938,57.105,130.358,56.911z"/>
	<path fill-rule="evenodd" clip-rule="evenodd" fill="#FFFFFF" d="M130.515,58.515c0.148,0.154,0.316,0.301,0.471,0.458
		c-1.07,0.148-2.062,0.71-1.566,1.374c1.627-0.02,2.045-0.63,2.657-1.147c-0.738-0.402-0.444-1.31-1.72-1.45
		c-0.764,0.151-1.565,0.551-1.248,0.993C129.754,58.921,130.081,58.648,130.515,58.515z"/>
	<path fill-rule="evenodd" clip-rule="evenodd" fill="#FFFFFF" d="M126.143,54.851c0.703,0.108,1.507,0.177,2.032,0
		C128.39,54.096,126.171,54.417,126.143,54.851z"/>
	<path fill-rule="evenodd" clip-rule="evenodd" fill="#FFFFFF" d="M72.923,126.517c0.667-0.599,2.111-1.868,0.312-2.136
		c-0.731-0.111-1.977,0.12-2.03,0.611c-0.034,0.318,0.728,0.36,0.939,0.609C72.431,125.937,71.692,126.615,72.923,126.517z"/>
	<path fill-rule="evenodd" clip-rule="evenodd" fill="#FFFFFF" d="M34.526,90.034c0.954-0.807,2.541-1.302,2.968-2.365
		c-0.034-0.085-0.176-0.118-0.311-0.153C35.943,88.075,33.391,89.062,34.526,90.034z"/>
	<path fill-rule="evenodd" clip-rule="evenodd" fill="#FFFFFF" d="M67.15,133.539c-0.882,0.204-0.748,1.149,0.466,1.068
		C68.743,134.532,68.65,133.189,67.15,133.539z"/>
	<path fill-rule="evenodd" clip-rule="evenodd" fill="#FFFFFF" d="M70.269,120.106c2.15-2.978,3.358-7.795,0.624-10.838
		c0.095-0.313,0.93-0.575,0.624-0.839c-0.749-0.036-0.341,0.493-1.091,0.458c-2.203-3.425-3.374-7.357-4.212-11.448
		c-1.185,2.716-0.074,6.234,0.466,8.547c-0.509-1.356-1.41-2.516-1.875-3.891c0.078-0.242-0.712-0.059-0.78-0.231
		c-3.198-2.581-9.147-3.821-9.523-7.785c-0.044-0.266-0.69,0.139-0.623-0.075c-1.592-1.663-2.715-3.679-5.775-4.579
		c-0.799,0.561,0.558,1.091,1.094,1.524c0.613,0.495,1.02,1.104,1.719,1.604c0.472,0.338,1.47,0.562,1.871,0.916
		c0.945,0.833,1.076,2.077,1.56,3.054c0.501,1.004,0.96,2.008,2.186,2.821c0.025-0.088-0.024-0.213,0.154-0.227
		c1.134,0.92,2.87,1.428,4.218,2.289c2.382,1.522,2.872,3.771,3.747,6.106c0.272,0.728,1.001,1.473,1.09,2.136
		c0.113,0.85-0.635,1.776-0.782,2.672c-0.119,0.768-0.069,1.611,0,2.365c0.329,3.424,0.459,6.861,4.526,8.701
		c-0.004-0.25-0.259-0.38-0.154-0.685c0.468,0.008,0.662,0.849,0.937,0.458c-0.474-1.474-1.297-2.776-2.027-4.123
		c0.895-0.553,1.677-1.163,2.806-1.604C70.894,118.325,69.995,119.259,70.269,120.106z M67.929,113.847
		c-0.227-0.9,1.781-1.367,2.34-2.137C70.608,112.666,68.558,113.113,67.929,113.847z M68.242,112.167
		c-0.392-0.65,0.983-1.094,1.245-1.678C70.627,111.055,68.631,111.635,68.242,112.167z M68.242,110.718
		c-0.429-1.139-0.925-2.245-0.937-3.585C67.727,108.324,70.186,109.727,68.242,110.718z M70.58,112.931
		c0.409,1.203-2.407,2.054-3.43,3.053C66.791,114.539,69.693,114.024,70.58,112.931z M70.737,114.609
		c-0.148,0.971-2.349,1.602-3.278,2.445C67.718,116.198,69.904,115.486,70.737,114.609z M68.085,118.503
		c-1.22-1.133,2.011-1.658,2.652-2.595C71.387,117.217,68.892,117.651,68.085,118.503z"/>
	<path fill-rule="evenodd" clip-rule="evenodd" fill="#FFFFFF" d="M68.864,129.721c-0.222,0.105-0.222,0.434,0,0.535
		c0.585,0.032,0.915-0.061,0.937-0.305C69.668,129.787,69.415,129.682,68.864,129.721z"/>
	<path fill-rule="evenodd" clip-rule="evenodd" fill="#FFFFFF" d="M27.814,118.58c-0.337-0.191-0.573-0.432-1.405-0.382
		C25.762,118.64,27.439,119.095,27.814,118.58z"/>
	<path fill-rule="evenodd" clip-rule="evenodd" fill="#FFFFFF" d="M113.345,145.521c1.285-0.646,3.47-1.134,3.434-2.214
		c-0.208,0-0.417,0-0.623,0c-2.349,0.894-4.425,2.08-6.558,3.207c-2.038,1.074-4.524,2.103-5.304,3.435
		C107.794,148.801,110.424,146.994,113.345,145.521z"/>
	<path fill-rule="evenodd" clip-rule="evenodd" fill="#FFFFFF" d="M28.753,122.472c2.934,0.013,0.339-3.21-0.782-1.526
		c0.43,0.197,1.149,0.255,1.251,0.61c-0.302,0.234-0.78,0.383-0.782,0.763C28.612,122.335,28.684,122.403,28.753,122.472z"/>
	<path fill-rule="evenodd" clip-rule="evenodd" fill="#FFFFFF" d="M30.781,123.693c-1.127,0.084-1.238,0.666-1.248,1.299
		C30.879,125.006,30.849,124.136,30.781,123.693z"/>
	<path fill-rule="evenodd" clip-rule="evenodd" fill="#FFFFFF" d="M139.568,148.267c-2.549,0.072-3.327,1.397-5.605,1.892
		l1.901-0.007c0.242-0.25,1.236-0.488,1.833-0.739C138.458,149.092,139.431,148.74,139.568,148.267z"/>
</g>
</svg>
